<?xml version="1.0" encoding="utf-8"?>
<!-- Generator: Adobe Illustrator 23.0.2, SVG Export Plug-In . SVG Version: 6.00 Build 0)  -->
<svg version="1.1" xmlns="http://www.w3.org/2000/svg" xmlns:xlink="http://www.w3.org/1999/xlink" x="0px" y="0px"
	 viewBox="0 0 709.97 653.29" style="enable-background:new 0 0 709.97 653.29;" xml:space="preserve">
<style type="text/css">
	.st0{fill:#FFFFFF;}
	.st1{fill:#45D62F;stroke:#031F43;stroke-width:2;stroke-linecap:round;stroke-linejoin:round;}
	.st2{fill:#031F43;}
	.st3{fill:#347CE1;stroke:#031F43;stroke-width:2;stroke-linecap:round;stroke-linejoin:round;stroke-miterlimit:10;}
	.st4{fill:#FFFFFF;stroke:#031F43;stroke-width:2;stroke-linecap:round;stroke-linejoin:round;stroke-miterlimit:10;}
	.st5{fill:none;stroke:#031F43;stroke-width:2;stroke-linecap:round;stroke-linejoin:round;stroke-miterlimit:10;}
	.st6{fill:none;stroke:#031F43;stroke-width:2;stroke-linecap:round;stroke-linejoin:round;}
</style>
<path class="st0" d="M285.47,504.76c0,0,16.46-2.79,59.91,4.17c62.87,10.07,86.61,19.19,105.15,13.01
	c18.54-6.18,26.27-18.54,26.27-18.54s43.78,17,84.98,12.36s39.66-14.94,39.66-14.94s-1.46-60.61-19.85-88.47
	c-18.39-27.86-34.18-52.94-64.09-67.24c-29.91-14.3-30.65-16.9-41.24-19.69s-17.09-4.27-17.09-4.27l-11.15-36.78
	c0,0,9.66-36.22,0.93-45.14c-8.73-8.92-30.46-44.02-46.44-42.54s-72.63,10.96-73.37,13.75s3.34,53.31,6.69,61.67
	c3.34,8.36,6.32,21.36,7.8,26.38c1.49,5.02,7.43,30.28,7.43,30.28s18.85,19.03,26.72,19.03c7.87,0,9.61-1.3-23.98,11.82
	c-33.58,13.12-45.53,25.11-55.87,39.33C274.42,431.28,285.47,504.76,285.47,504.76z"/>
<path class="st0" d="M210.45,463.24l-5.15,38.97c0,0,12.01,11.77,29.66,12.5s32.11-7.6,32.11-7.6l-4.9-40.44L210.45,463.24z"/>
<g>
	<circle class="st1" cx="285.22" cy="356.6" r="27.25"/>
	<circle class="st1" cx="355.19" cy="352.79" r="27.25"/>
	
		<ellipse transform="matrix(0.0896 -0.996 0.996 0.0896 -249.9584 659.9526)" class="st2" cx="236.01" cy="466.7" rx="11.86" ry="26.81"/>
	<path class="st3" d="M236.28,394.6c0.2-0.4-2.22-7.65,4.03-15.71c6.24-8.06,20.95-22.16,31.42-19.94
		c10.47,2.22,11.48,8.66,15.31,16.92c3.83,8.26,9.27,19.74,11.08,30.62s-0.2,29.21-12.69,34.64c-12.49,5.44-14.7,12.69-21.15,12.69
		c-6.45,0-16.72-2.82-23.36-13.29C234.26,430.05,236.08,395,236.28,394.6z"/>
	<path class="st4" d="M250.64,468.96c5.45-7.63,3.72-27,6.48-36.31c2.76-9.31,18.29-29.06,19.18-33.44
		c1.26-6.16-1.14-8.91-1.14-8.91s4.41-5.3,1.71-8.81c-1.47-1.92-3.18-1.71-3.18-1.71s2.35-3.33-0.16-5.22
		c-3.08-2.31-7.35-0.28-7.35-0.28s-0.66-3.22-2.33-3.37c-4.72-0.43-15.62,6.44-22.51,11.57c-6.89,5.13-18.59,15.68-22.27,26.57
		c-3.69,10.9-2.38,48.03-0.04,53.28s6.62,10.76,15.87,10.9C244.15,473.38,248.01,472.63,250.64,468.96z"/>
	<path class="st5" d="M275.17,390.31c0,0-20.23,25.14-21.48,27.32"/>
	<path class="st5" d="M273.62,379.62c0,0-25.23,28.66-26.48,30.84"/>
	<path class="st5" d="M266.18,374.29c0,0-26.12,25.43-28.95,30.11"/>
	<path class="st5" d="M401.62,361.05c0,0-6.91-16.57-11.05-16.34c-4.14,0.23-7.83,1.38-6.21,5.75s9.9,26.7,13.81,32.92
		c3.91,6.21,11.28,13.35,25.78,20.95c14.5,7.6,32,24.17,32,24.17s8.58-7.47,11.81-13.48s3.65-11.08,3.65-11.08
		s-4.69-6.25-7.82-14.07s-0.2-22.47-0.98-32.44c-0.78-9.97-13.68-26.18-20.71-27.16c-7.03-0.98-31.07,5.08-34.98,8.6
		c-3.91,3.52-5.86,21.3-3.52,25.79c2.34,4.49,5.08,5.08,5.08,5.08s2.34,8.01,5.67,8.6s5.67-1.56,5.67-1.56s5.28,6.06,8.99,1.37
		c3.71-4.69-0.98-17.98-0.98-17.98l13.48-0.39"/>
	<path class="st5" d="M419.81,376.77c0,0-4.46-15.65-1.57-22.06c2.89-6.41,22.75-7.54,22.75-7.54"/>
	<path class="st5" d="M409.12,370.74c0,0-0.85-15.98,2.21-22.31c3.06-6.33,19.48-7.04,19.48-7.04"/>
	<path class="st5" d="M432.7,330.71c0,0-15.96-9.93-20.61-8.17c-4.65,1.76-29.66,15.33-29.03,18.85c0.63,3.52,4.65,4.02,9.93,2.01
		c5.28-2.01,13.93-4.54,13.93-4.54"/>
	<path class="st5" d="M210.24,463.08c0,0-4.95,26.29-4.95,38.87"/>
	<path class="st5" d="M262.07,467.79c-0.04,0.49,4.54,31.28,4.95,38.87"/>
	<path class="st2" d="M446,419.79c0,0-7.04,21.11-1.92,26.66s13.71-4.62,18.83-14s9.54-27.38,9.54-27.38s-9.16,16.69-12.04,19.57
		c-2.88,2.88-4.47,3.86-4.47,3.86L446,419.79z"/>
	<line class="st5" x1="471.4" y1="403.93" x2="535.08" y2="444.54"/>
	<path class="st5" d="M267.25,350.25c0,0,4.85-1.78,15.11-3.33s16.95,0,16.95,0"/>
	<path class="st2" d="M274.6,348.11c0,0,0.24,12.41,10.15,11.46c9.91-0.95,8-13.73,8-13.73s-7.16,0.12-10.38,1.07
		C279.14,347.87,274.6,348.11,274.6,348.11z"/>
	<path class="st5" d="M335.93,347.87c0,0,4.92-1.55,15.25-2.63c10.33-1.08,16.93,0.78,16.93,0.78"/>
	<path class="st2" d="M343.37,346.07c0,0-0.33,12.41,9.61,11.91c9.94-0.5,8.62-13.34,8.62-13.34s-7.16-0.21-10.42,0.59
		C347.92,346.04,343.37,346.07,343.37,346.07z"/>
	<path class="st6" d="M309.53,343.99c0,0,2.04-4.39,9.96-4.54c7.43-0.15,9.8,3.75,9.8,3.75"/>
	<path class="st6" d="M277.62,330.34c0,0,40.19-30.54,46.72-30.93s7.18,7.18,7.18,7.18"/>
	<path class="st6" d="M423.48,324.89c0,0,40.19-30.54,46.72-30.93s7.18,7.18,7.18,7.18"/>
	<path class="st6" d="M362.17,259.01c0,0-0.18,10.18-2.46,18.08s-4.04,11.06-4.04,11.06s7.02,2.98,13.87,2.46"/>
	<path class="st6" d="M359.71,308.35l27.56-9.66c0,0,2.63,13.69-7.02,17.73C370.59,320.46,359.71,308.35,359.71,308.35z"/>
	<path class="st6" d="M423.51,318.8c0,0,11.13-8.45,12.77-26.79"/>
	<path class="st6" d="M330.04,236.98c0,0,9.64,48.34,20.76,88.32"/>
	<path class="st6" d="M448.18,285.2c0,0,14.39,43.27,12.89,49.47c-1.5,6.2-4.7,6.84-4.7,6.84"/>
	<path class="st6" d="M462.46,322.17c1.35-0.45,138.56,28.2,138.56,178.05"/>
	<path class="st2" d="M455.29,286.54c-3.67,3.15-9.29,1.91-11.37-2.46c-1.43-3.01-2.55-6.27-1.87-8.12
		c1.51-4.09,8.83-9.7,6.03-17.67c-2.8-7.97-10.99-14.87-13.14-4.31c-2.15,10.56-3.66,12.71-9.05,10.34
		c-5.39-2.37-2.15-42.66-12.5-49.34s-24.99,6.25-34.47,8.19c-9.48,1.94-20.25,11.2-38.78-2.15c-18.53-13.36-18.74-17.24-22.62-28.44
		c-3.88-11.2-5.17-20.68-5.17-20.68s22.62-0.22,42.66-11.85s63.77-18.74,87.47,0.43c23.7,19.17,25.85,25.64,26.5,45.46
		s0.43,23.05,2.15,29.95s0.84,26.36-5.17,37.06C462.24,279.58,458.44,283.83,455.29,286.54z"/>
	<path class="st2" d="M322.9,200.99c0,0-9.26,11.2-7.33,34.04c1.94,22.84,19.65,58.28,23.36,47.12c0.4-1.2-12.19-61.96-7-72.95
		S322.9,200.99,322.9,200.99z"/>
	<line class="st6" x1="443.75" y1="444.82" x2="476.22" y2="501.46"/>
</g>
</svg>
